<mxfile host="app.diagrams.net" modified="2023-05-08T01:20:29.922Z" agent="Mozilla/5.0 (Windows NT 10.0; Win64; x64) AppleWebKit/537.36 (KHTML, like Gecko) Chrome/113.0.0.0 Safari/537.36" etag="8qqUihuH80Z26ZB4D8de" version="21.2.9" type="device">
  <diagram name="Page-1" id="13e1069c-82ec-6db2-03f1-153e76fe0fe0">
    <mxGraphModel dx="2206" dy="1175" grid="1" gridSize="10" guides="1" tooltips="1" connect="1" arrows="1" fold="1" page="1" pageScale="1" pageWidth="1100" pageHeight="850" background="none" math="0" shadow="0">
      <root>
        <mxCell id="0" />
        <mxCell id="1" parent="0" />
        <mxCell id="7baba1c4bc27f4b0-2" value="시스템" style="shape=umlLifeline;perimeter=lifelinePerimeter;whiteSpace=wrap;html=1;container=1;collapsible=0;recursiveResize=0;outlineConnect=0;rounded=1;shadow=0;comic=0;labelBackgroundColor=none;strokeWidth=1;fontFamily=Verdana;fontSize=12;align=center;" parent="1" vertex="1">
          <mxGeometry x="380" y="109" width="100" height="2291" as="geometry" />
        </mxCell>
        <mxCell id="d7kwrDIypniRsh-_axAG-21" value="&lt;div style=&quot;&quot;&gt;&lt;span style=&quot;background-color: initial;&quot;&gt;&lt;font face=&quot;Helvetica&quot;&gt;4. 회원 가입 결과 전달&lt;/font&gt;&lt;/span&gt;&lt;/div&gt;" style="html=1;verticalAlign=bottom;endArrow=block;labelBackgroundColor=none;fontFamily=Verdana;fontSize=12;edgeStyle=elbowEdgeStyle;elbow=vertical;align=right;dashed=1;fontStyle=1" parent="7baba1c4bc27f4b0-2" edge="1">
          <mxGeometry x="-0.9967" y="-2" relative="1" as="geometry">
            <mxPoint x="50.5" y="201" as="sourcePoint" />
            <mxPoint x="-250" y="201" as="targetPoint" />
            <mxPoint as="offset" />
          </mxGeometry>
        </mxCell>
        <mxCell id="7baba1c4bc27f4b0-3" value="DB" style="shape=umlLifeline;perimeter=lifelinePerimeter;whiteSpace=wrap;html=1;container=1;collapsible=0;recursiveResize=0;outlineConnect=0;rounded=1;shadow=0;comic=0;labelBackgroundColor=none;strokeWidth=1;fontFamily=Verdana;fontSize=12;align=center;" parent="1" vertex="1">
          <mxGeometry x="710" y="109" width="100" height="2291" as="geometry" />
        </mxCell>
        <mxCell id="7baba1c4bc27f4b0-4" value="KAKAO_API" style="shape=umlLifeline;perimeter=lifelinePerimeter;whiteSpace=wrap;html=1;container=1;collapsible=0;recursiveResize=0;outlineConnect=0;rounded=1;shadow=0;comic=0;labelBackgroundColor=none;strokeWidth=1;fontFamily=Verdana;fontSize=12;align=center;" parent="1" vertex="1">
          <mxGeometry x="895" y="109" width="100" height="2291" as="geometry" />
        </mxCell>
        <mxCell id="7baba1c4bc27f4b0-8" value="유저" style="shape=umlLifeline;perimeter=lifelinePerimeter;whiteSpace=wrap;html=1;container=1;collapsible=0;recursiveResize=0;outlineConnect=0;rounded=1;shadow=0;comic=0;labelBackgroundColor=none;strokeWidth=1;fontFamily=Verdana;fontSize=12;align=center;" parent="1" vertex="1">
          <mxGeometry x="80" y="109" width="100" height="2291" as="geometry" />
        </mxCell>
        <mxCell id="7baba1c4bc27f4b0-11" value="&lt;font face=&quot;Helvetica&quot;&gt;1. 회원가입 ([POST] /api/v1/join)&lt;/font&gt;" style="html=1;verticalAlign=bottom;endArrow=block;labelBackgroundColor=none;fontFamily=Verdana;fontSize=12;edgeStyle=elbowEdgeStyle;elbow=vertical;align=left;fontStyle=1" parent="1" edge="1">
          <mxGeometry x="-1" relative="1" as="geometry">
            <mxPoint x="129.5" y="215" as="sourcePoint" />
            <mxPoint x="430" y="215" as="targetPoint" />
            <mxPoint as="offset" />
          </mxGeometry>
        </mxCell>
        <mxCell id="d7kwrDIypniRsh-_axAG-28" value="유저" style="rounded=1;whiteSpace=wrap;html=1;fontSize=12;" parent="1" vertex="1">
          <mxGeometry x="80" y="2400" width="100" height="40" as="geometry" />
        </mxCell>
        <mxCell id="d7kwrDIypniRsh-_axAG-29" value="시스템" style="rounded=1;whiteSpace=wrap;html=1;fontSize=12;" parent="1" vertex="1">
          <mxGeometry x="380" y="2400" width="100" height="40" as="geometry" />
        </mxCell>
        <mxCell id="d7kwrDIypniRsh-_axAG-30" value="DB" style="rounded=1;whiteSpace=wrap;html=1;fontSize=12;" parent="1" vertex="1">
          <mxGeometry x="710" y="2400" width="100" height="40" as="geometry" />
        </mxCell>
        <mxCell id="d7kwrDIypniRsh-_axAG-31" value="KAKAO_API" style="rounded=1;whiteSpace=wrap;html=1;fontSize=12;" parent="1" vertex="1">
          <mxGeometry x="895" y="2400" width="100" height="40" as="geometry" />
        </mxCell>
        <mxCell id="d7kwrDIypniRsh-_axAG-33" value="&lt;span style=&quot;font-size: 25px;&quot;&gt;&lt;b&gt;인증 관련 API&lt;/b&gt;&lt;/span&gt;" style="text;html=1;strokeColor=none;fillColor=none;align=center;verticalAlign=middle;whiteSpace=wrap;rounded=0;fontSize=12;" parent="1" vertex="1">
          <mxGeometry x="297.5" y="40" width="485" height="30" as="geometry" />
        </mxCell>
        <mxCell id="XTyQyYrYn9rvqkkp8Cmc-2" value="&lt;font face=&quot;Helvetica&quot;&gt;3. 회원 저장 완료 후 결과 전달&lt;br&gt;&lt;/font&gt;" style="html=1;verticalAlign=bottom;endArrow=block;labelBackgroundColor=none;fontFamily=Verdana;fontSize=12;edgeStyle=elbowEdgeStyle;elbow=vertical;align=right;dashed=1;fontStyle=1" parent="1" edge="1">
          <mxGeometry x="-1" relative="1" as="geometry">
            <mxPoint x="760" y="285" as="sourcePoint" />
            <mxPoint x="429.5" y="285" as="targetPoint" />
            <mxPoint as="offset" />
          </mxGeometry>
        </mxCell>
        <mxCell id="XTyQyYrYn9rvqkkp8Cmc-4" value="회원가입 (/api/v1/join)" style="shape=umlFrame;whiteSpace=wrap;html=1;pointerEvents=0;width=170;height=20;fillColor=#fff2cc;strokeColor=#d6b656;" parent="1" vertex="1">
          <mxGeometry x="80" y="170" width="920" height="170" as="geometry" />
        </mxCell>
        <mxCell id="XTyQyYrYn9rvqkkp8Cmc-17" value="&lt;div style=&quot;&quot;&gt;&lt;font face=&quot;Helvetica&quot; color=&quot;#ff0000&quot;&gt;2-2. 이메일, 닉네임 중복 시, 혹은&lt;/font&gt;&lt;/div&gt;&lt;div style=&quot;&quot;&gt;&lt;font face=&quot;Helvetica&quot; color=&quot;#ff0000&quot;&gt;이메일, 닉네임, 비밀번호 검증 실패 시 예외 처리&lt;/font&gt;&lt;/div&gt;" style="html=1;verticalAlign=bottom;endArrow=block;labelBackgroundColor=none;fontFamily=Verdana;fontSize=12;edgeStyle=elbowEdgeStyle;elbow=vertical;align=right;dashed=1;fontStyle=1;strokeColor=#ff0000;" parent="1" edge="1">
          <mxGeometry x="-1" y="-2" relative="1" as="geometry">
            <mxPoint x="430.5" y="264" as="sourcePoint" />
            <mxPoint x="130" y="264" as="targetPoint" />
            <mxPoint as="offset" />
          </mxGeometry>
        </mxCell>
        <mxCell id="d7kwrDIypniRsh-_axAG-19" value="2. 회원가입 요청 정보 폼 검증 후 회원 저장 요청" style="html=1;verticalAlign=bottom;endArrow=block;labelBackgroundColor=none;fontFamily=Helvetica;fontSize=12;edgeStyle=elbowEdgeStyle;elbow=vertical;align=left;exitX=0.5;exitY=0.193;exitDx=0;exitDy=0;exitPerimeter=0;fontStyle=1" parent="1" edge="1">
          <mxGeometry x="-0.9984" relative="1" as="geometry">
            <mxPoint x="430" y="230" as="sourcePoint" />
            <mxPoint x="759.5" y="230" as="targetPoint" />
            <mxPoint as="offset" />
          </mxGeometry>
        </mxCell>
        <mxCell id="efj_H7i_S5H2ew-vdAwM-2" value="&lt;div style=&quot;&quot;&gt;&lt;span style=&quot;background-color: initial;&quot;&gt;&lt;font face=&quot;Helvetica&quot;&gt;8. 액세스 토큰 전달 및&lt;/font&gt;&lt;/span&gt;&lt;/div&gt;&lt;div style=&quot;&quot;&gt;&lt;span style=&quot;background-color: initial;&quot;&gt;&lt;font face=&quot;Helvetica&quot;&gt;리프레시 토큰 HTTPD로 전달&lt;/font&gt;&lt;/span&gt;&lt;/div&gt;" style="html=1;verticalAlign=bottom;endArrow=block;labelBackgroundColor=none;fontFamily=Verdana;fontSize=12;edgeStyle=elbowEdgeStyle;elbow=vertical;align=right;dashed=1;fontStyle=1" edge="1" parent="1">
          <mxGeometry x="-0.9967" y="-2" relative="1" as="geometry">
            <mxPoint x="430.5" y="508" as="sourcePoint" />
            <mxPoint x="130" y="508" as="targetPoint" />
            <mxPoint as="offset" />
          </mxGeometry>
        </mxCell>
        <mxCell id="efj_H7i_S5H2ew-vdAwM-3" value="&lt;font face=&quot;Helvetica&quot;&gt;5. 로그인 ([POST] /api/v1/login)&lt;/font&gt;" style="html=1;verticalAlign=bottom;endArrow=block;labelBackgroundColor=none;fontFamily=Verdana;fontSize=12;edgeStyle=elbowEdgeStyle;elbow=vertical;align=left;fontStyle=1" edge="1" parent="1">
          <mxGeometry x="-1" relative="1" as="geometry">
            <mxPoint x="129.5" y="405" as="sourcePoint" />
            <mxPoint x="430" y="405" as="targetPoint" />
            <mxPoint as="offset" />
          </mxGeometry>
        </mxCell>
        <mxCell id="efj_H7i_S5H2ew-vdAwM-4" value="&lt;font face=&quot;Helvetica&quot;&gt;7. 액세스 토큰, 리프레시 토큰 발급 및 전달,&lt;br&gt;리프레시 토큰 DB 저장&lt;br&gt;&lt;/font&gt;" style="html=1;verticalAlign=bottom;endArrow=block;labelBackgroundColor=none;fontFamily=Verdana;fontSize=12;edgeStyle=elbowEdgeStyle;elbow=vertical;align=right;dashed=1;fontStyle=1" edge="1" parent="1">
          <mxGeometry x="-1" relative="1" as="geometry">
            <mxPoint x="760" y="475" as="sourcePoint" />
            <mxPoint x="429.5" y="475" as="targetPoint" />
            <mxPoint as="offset" />
          </mxGeometry>
        </mxCell>
        <mxCell id="efj_H7i_S5H2ew-vdAwM-5" value="로그인 (api/v1/login)" style="shape=umlFrame;whiteSpace=wrap;html=1;pointerEvents=0;width=170;height=20;fillColor=#fff2cc;strokeColor=#d6b656;" vertex="1" parent="1">
          <mxGeometry x="80" y="360" width="920" height="170" as="geometry" />
        </mxCell>
        <mxCell id="efj_H7i_S5H2ew-vdAwM-6" value="&lt;div style=&quot;&quot;&gt;&lt;font face=&quot;Helvetica&quot; color=&quot;#ff0000&quot;&gt;6-2. 회원이 존재하지 않거나 닉네임, 비밀번호가&lt;/font&gt;&lt;/div&gt;&lt;div style=&quot;&quot;&gt;&lt;font face=&quot;Helvetica&quot; color=&quot;#ff0000&quot;&gt;잘못되었을 경우 예외 처리&lt;/font&gt;&lt;/div&gt;" style="html=1;verticalAlign=bottom;endArrow=block;labelBackgroundColor=none;fontFamily=Verdana;fontSize=12;edgeStyle=elbowEdgeStyle;elbow=vertical;align=right;dashed=1;fontStyle=1;strokeColor=#ff0000;" edge="1" parent="1">
          <mxGeometry x="-1" y="-2" relative="1" as="geometry">
            <mxPoint x="430.5" y="454" as="sourcePoint" />
            <mxPoint x="130" y="454" as="targetPoint" />
            <mxPoint as="offset" />
          </mxGeometry>
        </mxCell>
        <mxCell id="efj_H7i_S5H2ew-vdAwM-7" value="6. 로그인 요청 정보를 토대로 회원 조회" style="html=1;verticalAlign=bottom;endArrow=block;labelBackgroundColor=none;fontFamily=Helvetica;fontSize=12;edgeStyle=elbowEdgeStyle;elbow=vertical;align=left;exitX=0.5;exitY=0.193;exitDx=0;exitDy=0;exitPerimeter=0;fontStyle=1" edge="1" parent="1">
          <mxGeometry x="-0.9984" relative="1" as="geometry">
            <mxPoint x="430" y="420" as="sourcePoint" />
            <mxPoint x="759.5" y="420" as="targetPoint" />
            <mxPoint as="offset" />
          </mxGeometry>
        </mxCell>
        <mxCell id="efj_H7i_S5H2ew-vdAwM-9" value="&lt;div style=&quot;&quot;&gt;&lt;span style=&quot;background-color: initial;&quot;&gt;&lt;font face=&quot;Helvetica&quot;&gt;12. 회원 가입 결과 전달&lt;/font&gt;&lt;/span&gt;&lt;/div&gt;" style="html=1;verticalAlign=bottom;endArrow=block;labelBackgroundColor=none;fontFamily=Verdana;fontSize=12;edgeStyle=elbowEdgeStyle;elbow=vertical;align=right;dashed=1;fontStyle=1" edge="1" parent="1">
          <mxGeometry x="-0.9967" y="-2" relative="1" as="geometry">
            <mxPoint x="430.5" y="766" as="sourcePoint" />
            <mxPoint x="130" y="766" as="targetPoint" />
            <mxPoint as="offset" />
          </mxGeometry>
        </mxCell>
        <mxCell id="efj_H7i_S5H2ew-vdAwM-10" value="&lt;font face=&quot;Helvetica&quot;&gt;9. 카카오 액세스 토큰 및 닉네임 정보로&lt;br&gt;소셜 회원가입 ([POST] /api/v1/oauth/join/kakao)&lt;/font&gt;" style="html=1;verticalAlign=bottom;endArrow=block;labelBackgroundColor=none;fontFamily=Verdana;fontSize=12;edgeStyle=elbowEdgeStyle;elbow=vertical;align=left;fontStyle=1" edge="1" parent="1">
          <mxGeometry x="-0.9978" relative="1" as="geometry">
            <mxPoint x="129.5" y="620" as="sourcePoint" />
            <mxPoint x="430" y="620" as="targetPoint" />
            <mxPoint as="offset" />
          </mxGeometry>
        </mxCell>
        <mxCell id="efj_H7i_S5H2ew-vdAwM-11" value="&lt;font face=&quot;Helvetica&quot;&gt;11. 회원 저장 완료 후 결과 전달&lt;br&gt;&lt;/font&gt;" style="html=1;verticalAlign=bottom;endArrow=block;labelBackgroundColor=none;fontFamily=Verdana;fontSize=12;edgeStyle=elbowEdgeStyle;elbow=vertical;align=right;dashed=1;fontStyle=1" edge="1" parent="1">
          <mxGeometry x="-1" relative="1" as="geometry">
            <mxPoint x="760" y="740" as="sourcePoint" />
            <mxPoint x="429.5" y="740" as="targetPoint" />
            <mxPoint as="offset" />
          </mxGeometry>
        </mxCell>
        <mxCell id="efj_H7i_S5H2ew-vdAwM-12" value="소셜 회원가입 (api/v1/oauth/join/kakao)" style="shape=umlFrame;whiteSpace=wrap;html=1;pointerEvents=0;width=260;height=20;fillColor=#fff2cc;strokeColor=#d6b656;" vertex="1" parent="1">
          <mxGeometry x="80" y="550" width="920" height="240" as="geometry" />
        </mxCell>
        <mxCell id="efj_H7i_S5H2ew-vdAwM-13" value="&lt;div style=&quot;&quot;&gt;&lt;font face=&quot;Helvetica&quot; color=&quot;#ff0000&quot;&gt;10-2. 이메일 동의 제공을 하지 않았거나,&lt;/font&gt;&lt;/div&gt;&lt;div style=&quot;&quot;&gt;&lt;font face=&quot;Helvetica&quot; color=&quot;#ff0000&quot;&gt;이미 가입된 계정일 경우 예외 처리&lt;/font&gt;&lt;/div&gt;" style="html=1;verticalAlign=bottom;endArrow=block;labelBackgroundColor=none;fontFamily=Verdana;fontSize=12;edgeStyle=elbowEdgeStyle;elbow=vertical;align=right;dashed=1;fontStyle=1;strokeColor=#ff0000;" edge="1" parent="1">
          <mxGeometry x="-1" y="-2" relative="1" as="geometry">
            <mxPoint x="430.5" y="669" as="sourcePoint" />
            <mxPoint x="130" y="669" as="targetPoint" />
            <mxPoint as="offset" />
          </mxGeometry>
        </mxCell>
        <mxCell id="efj_H7i_S5H2ew-vdAwM-14" value="10. 카카오 액세스 토큰에서 카카오 로그인 프로필 획득,&lt;br&gt;이메일 + 인증 제공자로 DB 내 중복 여부 확인 및&lt;br&gt;프로필 내 이메일 + 요청 닉네임으로 회원 저장 요청" style="html=1;verticalAlign=bottom;endArrow=block;labelBackgroundColor=none;fontFamily=Helvetica;fontSize=12;edgeStyle=elbowEdgeStyle;elbow=vertical;align=left;exitX=0.5;exitY=0.193;exitDx=0;exitDy=0;exitPerimeter=0;fontStyle=1" edge="1" parent="1">
          <mxGeometry x="-0.998" relative="1" as="geometry">
            <mxPoint x="430" y="635" as="sourcePoint" />
            <mxPoint x="759.5" y="635" as="targetPoint" />
            <mxPoint as="offset" />
          </mxGeometry>
        </mxCell>
        <mxCell id="efj_H7i_S5H2ew-vdAwM-17" value="&lt;font face=&quot;Helvetica&quot;&gt;10-4. 카카오 로그인 연결 끊기 완료&lt;br&gt;&lt;/font&gt;" style="html=1;verticalAlign=bottom;endArrow=block;labelBackgroundColor=none;fontFamily=Verdana;fontSize=12;edgeStyle=elbowEdgeStyle;elbow=vertical;align=right;dashed=1;fontStyle=1;fontColor=#ff0000;strokeColor=#ff0000;" edge="1" parent="1">
          <mxGeometry x="-1" relative="1" as="geometry">
            <mxPoint x="944.5" y="712" as="sourcePoint" />
            <mxPoint x="129.66666666666674" y="712" as="targetPoint" />
            <mxPoint as="offset" />
            <Array as="points">
              <mxPoint x="392" y="712" />
            </Array>
          </mxGeometry>
        </mxCell>
        <mxCell id="efj_H7i_S5H2ew-vdAwM-19" value="&lt;font face=&quot;Helvetica&quot;&gt;13. 카카오 액세스 토큰을 통해&lt;br&gt;소셜 로그인 ([POST] /api/v1/oauth/login/kakao)&lt;/font&gt;" style="html=1;verticalAlign=bottom;endArrow=block;labelBackgroundColor=none;fontFamily=Verdana;fontSize=12;edgeStyle=elbowEdgeStyle;elbow=vertical;align=left;fontStyle=1" edge="1" parent="1">
          <mxGeometry x="-0.9978" relative="1" as="geometry">
            <mxPoint x="129.5" y="890" as="sourcePoint" />
            <mxPoint x="430" y="890" as="targetPoint" />
            <mxPoint as="offset" />
          </mxGeometry>
        </mxCell>
        <mxCell id="efj_H7i_S5H2ew-vdAwM-21" value="소셜 로그인 (api/v1/oauth/login/kakao)" style="shape=umlFrame;whiteSpace=wrap;html=1;pointerEvents=0;width=260;height=20;fillColor=#fff2cc;strokeColor=#d6b656;" vertex="1" parent="1">
          <mxGeometry x="80" y="820" width="920" height="200" as="geometry" />
        </mxCell>
        <mxCell id="efj_H7i_S5H2ew-vdAwM-22" value="&lt;div style=&quot;&quot;&gt;&lt;font face=&quot;Helvetica&quot; color=&quot;#ff0000&quot;&gt;14-2. 회원이 존재하지 않을 경우 예외 처리&lt;/font&gt;&lt;/div&gt;" style="html=1;verticalAlign=bottom;endArrow=block;labelBackgroundColor=none;fontFamily=Verdana;fontSize=12;edgeStyle=elbowEdgeStyle;elbow=vertical;align=right;dashed=1;fontStyle=1;strokeColor=#ff0000;" edge="1" parent="1">
          <mxGeometry x="-1" y="-2" relative="1" as="geometry">
            <mxPoint x="430.5" y="939" as="sourcePoint" />
            <mxPoint x="130" y="939" as="targetPoint" />
            <mxPoint as="offset" />
          </mxGeometry>
        </mxCell>
        <mxCell id="efj_H7i_S5H2ew-vdAwM-23" value="14. 카카오 액세스 토큰에서 카카오 로그인 프로필 획득,&lt;br&gt;이메일을 토대로 회원 조회" style="html=1;verticalAlign=bottom;endArrow=block;labelBackgroundColor=none;fontFamily=Helvetica;fontSize=12;edgeStyle=elbowEdgeStyle;elbow=vertical;align=left;exitX=0.5;exitY=0.193;exitDx=0;exitDy=0;exitPerimeter=0;fontStyle=1" edge="1" parent="1">
          <mxGeometry x="-0.998" relative="1" as="geometry">
            <mxPoint x="430" y="905" as="sourcePoint" />
            <mxPoint x="759.5" y="905" as="targetPoint" />
            <mxPoint as="offset" />
          </mxGeometry>
        </mxCell>
        <mxCell id="efj_H7i_S5H2ew-vdAwM-26" value="&lt;div style=&quot;&quot;&gt;&lt;span style=&quot;background-color: initial;&quot;&gt;&lt;font face=&quot;Helvetica&quot;&gt;16. 액세스 토큰 전달 및&lt;/font&gt;&lt;/span&gt;&lt;/div&gt;&lt;div style=&quot;&quot;&gt;&lt;span style=&quot;background-color: initial;&quot;&gt;&lt;font face=&quot;Helvetica&quot;&gt;리프레시 토큰 HTTPD로 전달&lt;/font&gt;&lt;/span&gt;&lt;/div&gt;" style="html=1;verticalAlign=bottom;endArrow=block;labelBackgroundColor=none;fontFamily=Verdana;fontSize=12;edgeStyle=elbowEdgeStyle;elbow=vertical;align=right;dashed=1;fontStyle=1" edge="1" parent="1">
          <mxGeometry x="-0.9967" y="-2" relative="1" as="geometry">
            <mxPoint x="430.5" y="993.3299999999999" as="sourcePoint" />
            <mxPoint x="130" y="993.3299999999999" as="targetPoint" />
            <mxPoint as="offset" />
          </mxGeometry>
        </mxCell>
        <mxCell id="efj_H7i_S5H2ew-vdAwM-27" value="&lt;font face=&quot;Helvetica&quot;&gt;15. 액세스 토큰, 리프레시 토큰 발급 및 전달,&lt;br&gt;리프레시 토큰 DB 저장&lt;br&gt;&lt;/font&gt;" style="html=1;verticalAlign=bottom;endArrow=block;labelBackgroundColor=none;fontFamily=Verdana;fontSize=12;edgeStyle=elbowEdgeStyle;elbow=vertical;align=right;dashed=1;fontStyle=1" edge="1" parent="1">
          <mxGeometry x="-1" relative="1" as="geometry">
            <mxPoint x="760" y="960.3299999999999" as="sourcePoint" />
            <mxPoint x="429.5" y="960.3299999999999" as="targetPoint" />
            <mxPoint as="offset" />
          </mxGeometry>
        </mxCell>
        <mxCell id="efj_H7i_S5H2ew-vdAwM-28" value="&lt;div style=&quot;&quot;&gt;&lt;font face=&quot;Helvetica&quot;&gt;20. 로그아웃 결과 전달&lt;/font&gt;&lt;/div&gt;" style="html=1;verticalAlign=bottom;endArrow=block;labelBackgroundColor=none;fontFamily=Verdana;fontSize=12;edgeStyle=elbowEdgeStyle;elbow=vertical;align=right;dashed=1;fontStyle=1" edge="1" parent="1">
          <mxGeometry x="-0.9967" y="-2" relative="1" as="geometry">
            <mxPoint x="430.5" y="1195" as="sourcePoint" />
            <mxPoint x="130" y="1195" as="targetPoint" />
            <mxPoint as="offset" />
          </mxGeometry>
        </mxCell>
        <mxCell id="efj_H7i_S5H2ew-vdAwM-29" value="&lt;font face=&quot;Helvetica&quot;&gt;17. 로그아웃 ([DELETE] /api/v1/logout)&lt;/font&gt;" style="html=1;verticalAlign=bottom;endArrow=block;labelBackgroundColor=none;fontFamily=Verdana;fontSize=12;edgeStyle=elbowEdgeStyle;elbow=vertical;align=left;fontStyle=1" edge="1" parent="1">
          <mxGeometry x="-1" relative="1" as="geometry">
            <mxPoint x="129.5" y="1092" as="sourcePoint" />
            <mxPoint x="430" y="1092" as="targetPoint" />
            <mxPoint as="offset" />
          </mxGeometry>
        </mxCell>
        <mxCell id="efj_H7i_S5H2ew-vdAwM-30" value="&lt;font face=&quot;Helvetica&quot;&gt;19. 리프레시 토큰 삭제 및 로그아웃 결과 전달&lt;br&gt;&lt;/font&gt;" style="html=1;verticalAlign=bottom;endArrow=block;labelBackgroundColor=none;fontFamily=Verdana;fontSize=12;edgeStyle=elbowEdgeStyle;elbow=vertical;align=right;dashed=1;fontStyle=1" edge="1" parent="1">
          <mxGeometry x="-1" relative="1" as="geometry">
            <mxPoint x="760" y="1175" as="sourcePoint" />
            <mxPoint x="429.5" y="1175" as="targetPoint" />
            <mxPoint as="offset" />
          </mxGeometry>
        </mxCell>
        <mxCell id="efj_H7i_S5H2ew-vdAwM-31" value="로그아웃 (api/v1/logout)" style="shape=umlFrame;whiteSpace=wrap;html=1;pointerEvents=0;width=170;height=20;fillColor=#f8cecc;strokeColor=#b85450;" vertex="1" parent="1">
          <mxGeometry x="80" y="1047" width="920" height="170" as="geometry" />
        </mxCell>
        <mxCell id="efj_H7i_S5H2ew-vdAwM-32" value="&lt;div style=&quot;&quot;&gt;&lt;font face=&quot;Helvetica&quot; color=&quot;#ff0000&quot;&gt;18-2. 리프레시 토큰이 유효하지 않거나&lt;/font&gt;&lt;/div&gt;&lt;div style=&quot;&quot;&gt;&lt;font face=&quot;Helvetica&quot; color=&quot;#ff0000&quot;&gt;회원이 존재하지 않을 경우 예외 처리&lt;/font&gt;&lt;/div&gt;" style="html=1;verticalAlign=bottom;endArrow=block;labelBackgroundColor=none;fontFamily=Verdana;fontSize=12;edgeStyle=elbowEdgeStyle;elbow=vertical;align=right;dashed=1;fontStyle=1;strokeColor=#ff0000;" edge="1" parent="1">
          <mxGeometry x="-1" y="-2" relative="1" as="geometry">
            <mxPoint x="430.5" y="1153" as="sourcePoint" />
            <mxPoint x="130" y="1153" as="targetPoint" />
            <mxPoint as="offset" />
          </mxGeometry>
        </mxCell>
        <mxCell id="efj_H7i_S5H2ew-vdAwM-33" value="18. 로그아웃 요청 시 HTTPD로 전달되는 리프레시 토큰&lt;br&gt;검증 및 리프레시 토큰을 통해 회원 정보 조회한 후&lt;br&gt;DB 내 리프레시 토큰 삭제 요청" style="html=1;verticalAlign=bottom;endArrow=block;labelBackgroundColor=none;fontFamily=Helvetica;fontSize=12;edgeStyle=elbowEdgeStyle;elbow=vertical;align=left;exitX=0.5;exitY=0.193;exitDx=0;exitDy=0;exitPerimeter=0;fontStyle=1" edge="1" parent="1">
          <mxGeometry x="-0.9984" relative="1" as="geometry">
            <mxPoint x="430" y="1123" as="sourcePoint" />
            <mxPoint x="759.5" y="1123" as="targetPoint" />
            <mxPoint as="offset" />
          </mxGeometry>
        </mxCell>
        <mxCell id="efj_H7i_S5H2ew-vdAwM-34" value="&lt;div style=&quot;&quot;&gt;&lt;font face=&quot;Helvetica&quot;&gt;24. 액세스 토큰 재발급&lt;/font&gt;&lt;/div&gt;" style="html=1;verticalAlign=bottom;endArrow=block;labelBackgroundColor=none;fontFamily=Verdana;fontSize=12;edgeStyle=elbowEdgeStyle;elbow=vertical;align=right;dashed=1;fontStyle=1" edge="1" parent="1">
          <mxGeometry x="-0.9967" y="-2" relative="1" as="geometry">
            <mxPoint x="430.5" y="1412.3" as="sourcePoint" />
            <mxPoint x="130" y="1412.3" as="targetPoint" />
            <mxPoint as="offset" />
          </mxGeometry>
        </mxCell>
        <mxCell id="efj_H7i_S5H2ew-vdAwM-35" value="&lt;font face=&quot;Helvetica&quot;&gt;21. 액세스 토큰 재발급 요청&lt;br&gt;([POST] /api/v1/refresh)&lt;/font&gt;" style="html=1;verticalAlign=bottom;endArrow=block;labelBackgroundColor=none;fontFamily=Verdana;fontSize=12;edgeStyle=elbowEdgeStyle;elbow=vertical;align=left;fontStyle=1" edge="1" parent="1">
          <mxGeometry x="-1" relative="1" as="geometry">
            <mxPoint x="129.5" y="1309.3" as="sourcePoint" />
            <mxPoint x="430" y="1309.3" as="targetPoint" />
            <mxPoint as="offset" />
          </mxGeometry>
        </mxCell>
        <mxCell id="efj_H7i_S5H2ew-vdAwM-36" value="&lt;font face=&quot;Helvetica&quot;&gt;23. 회원 정보 완료 및 결과 전달&lt;br&gt;&lt;/font&gt;" style="html=1;verticalAlign=bottom;endArrow=block;labelBackgroundColor=none;fontFamily=Verdana;fontSize=12;edgeStyle=elbowEdgeStyle;elbow=vertical;align=right;dashed=1;fontStyle=1" edge="1" parent="1">
          <mxGeometry x="-1" relative="1" as="geometry">
            <mxPoint x="760" y="1392.3" as="sourcePoint" />
            <mxPoint x="429.5" y="1392.3" as="targetPoint" />
            <mxPoint as="offset" />
          </mxGeometry>
        </mxCell>
        <mxCell id="efj_H7i_S5H2ew-vdAwM-37" value="액세스 토큰 재발급 요청 (api/v1/refresh)" style="shape=umlFrame;whiteSpace=wrap;html=1;pointerEvents=0;width=250;height=20;fillColor=#fff2cc;strokeColor=#d6b656;" vertex="1" parent="1">
          <mxGeometry x="80" y="1240" width="920" height="200" as="geometry" />
        </mxCell>
        <mxCell id="efj_H7i_S5H2ew-vdAwM-38" value="&lt;div style=&quot;&quot;&gt;&lt;font face=&quot;Helvetica&quot; color=&quot;#ff0000&quot;&gt;22-2. 리프레시 토큰이 유효하지 않거나&lt;/font&gt;&lt;/div&gt;&lt;div style=&quot;&quot;&gt;&lt;font face=&quot;Helvetica&quot; color=&quot;#ff0000&quot;&gt;회원이 존재하지 않을 경우 예외 처리&lt;/font&gt;&lt;/div&gt;" style="html=1;verticalAlign=bottom;endArrow=block;labelBackgroundColor=none;fontFamily=Verdana;fontSize=12;edgeStyle=elbowEdgeStyle;elbow=vertical;align=right;dashed=1;fontStyle=1;strokeColor=#ff0000;" edge="1" parent="1">
          <mxGeometry x="-1" y="-2" relative="1" as="geometry">
            <mxPoint x="430.5" y="1370.3" as="sourcePoint" />
            <mxPoint x="130" y="1370.3" as="targetPoint" />
            <mxPoint as="offset" />
          </mxGeometry>
        </mxCell>
        <mxCell id="efj_H7i_S5H2ew-vdAwM-39" value="22. 요청 시 HTTPD로 전달되는 리프레시 토큰&lt;br&gt;검증 및 리프레시 토큰을 통해 회원 정보 조회" style="html=1;verticalAlign=bottom;endArrow=block;labelBackgroundColor=none;fontFamily=Helvetica;fontSize=12;edgeStyle=elbowEdgeStyle;elbow=vertical;align=left;exitX=0.5;exitY=0.193;exitDx=0;exitDy=0;exitPerimeter=0;fontStyle=1" edge="1" parent="1">
          <mxGeometry x="-0.9984" relative="1" as="geometry">
            <mxPoint x="430" y="1340.3" as="sourcePoint" />
            <mxPoint x="759.5" y="1340.3" as="targetPoint" />
            <mxPoint as="offset" />
          </mxGeometry>
        </mxCell>
        <mxCell id="efj_H7i_S5H2ew-vdAwM-41" value="&lt;font face=&quot;Helvetica&quot;&gt;25. 회원 탈퇴 ([DELETE] /api/v1/withdraw)&lt;/font&gt;" style="html=1;verticalAlign=bottom;endArrow=block;labelBackgroundColor=none;fontFamily=Verdana;fontSize=12;edgeStyle=elbowEdgeStyle;elbow=vertical;align=left;fontStyle=1" edge="1" parent="1">
          <mxGeometry x="-1" relative="1" as="geometry">
            <mxPoint x="129.5" y="1517" as="sourcePoint" />
            <mxPoint x="430" y="1517" as="targetPoint" />
            <mxPoint as="offset" />
          </mxGeometry>
        </mxCell>
        <mxCell id="efj_H7i_S5H2ew-vdAwM-43" value="회원 탈퇴 (api/v1/withdraw)" style="shape=umlFrame;whiteSpace=wrap;html=1;pointerEvents=0;width=170;height=20;fillColor=#f8cecc;strokeColor=#b85450;" vertex="1" parent="1">
          <mxGeometry x="80" y="1465" width="920" height="365" as="geometry" />
        </mxCell>
        <mxCell id="efj_H7i_S5H2ew-vdAwM-44" value="&lt;div style=&quot;&quot;&gt;&lt;font face=&quot;Helvetica&quot; color=&quot;#ff0000&quot;&gt;26-2. 리프레시 토큰이 유효하지 않거나&lt;/font&gt;&lt;/div&gt;&lt;div style=&quot;&quot;&gt;&lt;font face=&quot;Helvetica&quot; color=&quot;#ff0000&quot;&gt;회원이 존재하지 않을 경우 예외 처리&lt;/font&gt;&lt;/div&gt;" style="html=1;verticalAlign=bottom;endArrow=block;labelBackgroundColor=none;fontFamily=Verdana;fontSize=12;edgeStyle=elbowEdgeStyle;elbow=vertical;align=right;dashed=1;fontStyle=1;strokeColor=#ff0000;" edge="1" parent="1">
          <mxGeometry x="-1" y="-2" relative="1" as="geometry">
            <mxPoint x="430.5" y="1571" as="sourcePoint" />
            <mxPoint x="130" y="1571" as="targetPoint" />
            <mxPoint as="offset" />
          </mxGeometry>
        </mxCell>
        <mxCell id="efj_H7i_S5H2ew-vdAwM-45" value="26. 로그아웃 요청 시 HTTPD로 전달되는 리프레시 토큰&lt;br&gt;검증 및 리프레시 토큰을 통해 회원 정보 조회" style="html=1;verticalAlign=bottom;endArrow=block;labelBackgroundColor=none;fontFamily=Helvetica;fontSize=12;edgeStyle=elbowEdgeStyle;elbow=vertical;align=left;exitX=0.5;exitY=0.193;exitDx=0;exitDy=0;exitPerimeter=0;fontStyle=1" edge="1" parent="1">
          <mxGeometry x="-0.9984" relative="1" as="geometry">
            <mxPoint x="430" y="1541" as="sourcePoint" />
            <mxPoint x="759.5" y="1541" as="targetPoint" />
            <mxPoint as="offset" />
          </mxGeometry>
        </mxCell>
        <mxCell id="efj_H7i_S5H2ew-vdAwM-46" value="27. 카카오 액세스 토큰도 같이 전달된 경우 카카오 로그인 연결 끊기 요청" style="html=1;verticalAlign=bottom;endArrow=block;labelBackgroundColor=none;fontFamily=Helvetica;fontSize=12;edgeStyle=elbowEdgeStyle;elbow=vertical;align=left;exitX=0.5;exitY=0.193;exitDx=0;exitDy=0;exitPerimeter=0;fontStyle=1" edge="1" parent="1" target="7baba1c4bc27f4b0-4">
          <mxGeometry x="-0.9984" relative="1" as="geometry">
            <mxPoint x="430" y="1630.22" as="sourcePoint" />
            <mxPoint x="759.5" y="1630.22" as="targetPoint" />
            <mxPoint as="offset" />
          </mxGeometry>
        </mxCell>
        <mxCell id="efj_H7i_S5H2ew-vdAwM-47" value="10-3. 이메일 제공 미동의, 중복 계정일 경우&lt;br&gt;카카오 로그인 연결 끊기 요청" style="html=1;verticalAlign=bottom;endArrow=block;labelBackgroundColor=none;fontFamily=Helvetica;fontSize=12;edgeStyle=elbowEdgeStyle;elbow=vertical;align=left;exitX=0.5;exitY=0.193;exitDx=0;exitDy=0;exitPerimeter=0;fontStyle=1;strokeColor=#ff0000;fontColor=#ff0000;" edge="1" parent="1">
          <mxGeometry x="-0.998" relative="1" as="geometry">
            <mxPoint x="430" y="687.63" as="sourcePoint" />
            <mxPoint x="944.5" y="687.8148148148148" as="targetPoint" />
            <mxPoint as="offset" />
          </mxGeometry>
        </mxCell>
        <mxCell id="efj_H7i_S5H2ew-vdAwM-48" value="&lt;font face=&quot;Helvetica&quot;&gt;28. 카카오 로그인 연결 끊기 완료&lt;br&gt;&lt;/font&gt;" style="html=1;verticalAlign=bottom;endArrow=block;labelBackgroundColor=none;fontFamily=Verdana;fontSize=12;edgeStyle=elbowEdgeStyle;elbow=vertical;align=right;dashed=1;fontStyle=1;fontColor=#000000;strokeColor=#000000;" edge="1" parent="1">
          <mxGeometry x="-1" relative="1" as="geometry">
            <mxPoint x="944.83" y="1660" as="sourcePoint" />
            <mxPoint x="129.99666666666675" y="1660" as="targetPoint" />
            <mxPoint as="offset" />
            <Array as="points">
              <mxPoint x="392.33" y="1660" />
            </Array>
          </mxGeometry>
        </mxCell>
        <mxCell id="efj_H7i_S5H2ew-vdAwM-49" value="소셜 로그인 회원일 경우 추가" style="shape=umlFrame;whiteSpace=wrap;html=1;pointerEvents=0;width=170;height=20;fillColor=#f8cecc;strokeColor=#b85450;" vertex="1" parent="1">
          <mxGeometry x="100" y="1590" width="880" height="100" as="geometry" />
        </mxCell>
        <mxCell id="efj_H7i_S5H2ew-vdAwM-50" value="&lt;div style=&quot;&quot;&gt;&lt;font face=&quot;Helvetica&quot;&gt;31. 회원 탈퇴 결과 전달&lt;/font&gt;&lt;/div&gt;" style="html=1;verticalAlign=bottom;endArrow=block;labelBackgroundColor=none;fontFamily=Verdana;fontSize=12;edgeStyle=elbowEdgeStyle;elbow=vertical;align=right;dashed=1;fontStyle=1" edge="1" parent="1">
          <mxGeometry x="-0.9967" y="-2" relative="1" as="geometry">
            <mxPoint x="430.5" y="1785" as="sourcePoint" />
            <mxPoint x="130" y="1785" as="targetPoint" />
            <mxPoint as="offset" />
          </mxGeometry>
        </mxCell>
        <mxCell id="efj_H7i_S5H2ew-vdAwM-51" value="&lt;font face=&quot;Helvetica&quot;&gt;30. 회원 탈퇴 처리 및 리프레시 토큰 삭제 후 결과 전달&lt;br&gt;&lt;/font&gt;" style="html=1;verticalAlign=bottom;endArrow=block;labelBackgroundColor=none;fontFamily=Verdana;fontSize=12;edgeStyle=elbowEdgeStyle;elbow=vertical;align=right;dashed=1;fontStyle=1" edge="1" parent="1">
          <mxGeometry x="-1" relative="1" as="geometry">
            <mxPoint x="760" y="1765" as="sourcePoint" />
            <mxPoint x="429.5" y="1765" as="targetPoint" />
            <mxPoint as="offset" />
          </mxGeometry>
        </mxCell>
        <mxCell id="efj_H7i_S5H2ew-vdAwM-52" value="29. 조회된 회원 탈퇴 처리 및 DB 내 리프레시 토큰 삭제 요청" style="html=1;verticalAlign=bottom;endArrow=block;labelBackgroundColor=none;fontFamily=Helvetica;fontSize=12;edgeStyle=elbowEdgeStyle;elbow=vertical;align=left;exitX=0.5;exitY=0.193;exitDx=0;exitDy=0;exitPerimeter=0;fontStyle=1" edge="1" parent="1">
          <mxGeometry x="-1" relative="1" as="geometry">
            <mxPoint x="430" y="1731" as="sourcePoint" />
            <mxPoint x="759.5" y="1731" as="targetPoint" />
            <mxPoint as="offset" />
          </mxGeometry>
        </mxCell>
        <mxCell id="efj_H7i_S5H2ew-vdAwM-53" value="&lt;div style=&quot;&quot;&gt;&lt;font face=&quot;Helvetica&quot;&gt;35. 중복이 아니면 200 OK,&lt;/font&gt;&lt;/div&gt;&lt;div style=&quot;&quot;&gt;&lt;font face=&quot;Helvetica&quot;&gt;중복이라면 400 BAD_REQUEST&lt;/font&gt;&lt;/div&gt;" style="html=1;verticalAlign=bottom;endArrow=block;labelBackgroundColor=none;fontFamily=Verdana;fontSize=12;edgeStyle=elbowEdgeStyle;elbow=vertical;align=right;dashed=1;fontStyle=1" edge="1" parent="1">
          <mxGeometry x="-0.9967" y="-2" relative="1" as="geometry">
            <mxPoint x="430.5" y="1965" as="sourcePoint" />
            <mxPoint x="130" y="1965" as="targetPoint" />
            <mxPoint as="offset" />
          </mxGeometry>
        </mxCell>
        <mxCell id="efj_H7i_S5H2ew-vdAwM-54" value="&lt;font face=&quot;Helvetica&quot;&gt;32. 이메일 중복 체크 ([POST] /api/v1/emailCheck)&lt;/font&gt;" style="html=1;verticalAlign=bottom;endArrow=block;labelBackgroundColor=none;fontFamily=Verdana;fontSize=12;edgeStyle=elbowEdgeStyle;elbow=vertical;align=left;fontStyle=1" edge="1" parent="1">
          <mxGeometry x="-1" relative="1" as="geometry">
            <mxPoint x="129.5" y="1895" as="sourcePoint" />
            <mxPoint x="430" y="1895" as="targetPoint" />
            <mxPoint as="offset" />
          </mxGeometry>
        </mxCell>
        <mxCell id="efj_H7i_S5H2ew-vdAwM-55" value="&lt;font face=&quot;Helvetica&quot;&gt;34. 조회 결과 전달&lt;br&gt;&lt;/font&gt;" style="html=1;verticalAlign=bottom;endArrow=block;labelBackgroundColor=none;fontFamily=Verdana;fontSize=12;edgeStyle=elbowEdgeStyle;elbow=vertical;align=right;dashed=1;fontStyle=1" edge="1" parent="1">
          <mxGeometry x="-1" relative="1" as="geometry">
            <mxPoint x="760" y="1944" as="sourcePoint" />
            <mxPoint x="429.5" y="1944" as="targetPoint" />
            <mxPoint as="offset" />
          </mxGeometry>
        </mxCell>
        <mxCell id="efj_H7i_S5H2ew-vdAwM-56" value="이메일 중복 체크 (api/v1/emailCheck)" style="shape=umlFrame;whiteSpace=wrap;html=1;pointerEvents=0;width=220;height=20;fillColor=#fff2cc;strokeColor=#d6b656;" vertex="1" parent="1">
          <mxGeometry x="80" y="1850" width="920" height="140" as="geometry" />
        </mxCell>
        <mxCell id="efj_H7i_S5H2ew-vdAwM-58" value="33. 회원 테이블 내 이메일 존재 유무 체크" style="html=1;verticalAlign=bottom;endArrow=block;labelBackgroundColor=none;fontFamily=Helvetica;fontSize=12;edgeStyle=elbowEdgeStyle;elbow=vertical;align=left;exitX=0.5;exitY=0.193;exitDx=0;exitDy=0;exitPerimeter=0;fontStyle=1" edge="1" parent="1">
          <mxGeometry x="-0.9984" relative="1" as="geometry">
            <mxPoint x="430" y="1910" as="sourcePoint" />
            <mxPoint x="759.5" y="1910" as="targetPoint" />
            <mxPoint as="offset" />
          </mxGeometry>
        </mxCell>
        <mxCell id="efj_H7i_S5H2ew-vdAwM-59" value="&lt;div style=&quot;&quot;&gt;&lt;font face=&quot;Helvetica&quot;&gt;39. 중복이 아니면 200 OK,&lt;/font&gt;&lt;/div&gt;&lt;div style=&quot;&quot;&gt;&lt;font face=&quot;Helvetica&quot;&gt;중복이라면 400 BAD_REQUEST&lt;/font&gt;&lt;/div&gt;" style="html=1;verticalAlign=bottom;endArrow=block;labelBackgroundColor=none;fontFamily=Verdana;fontSize=12;edgeStyle=elbowEdgeStyle;elbow=vertical;align=right;dashed=1;fontStyle=1" edge="1" parent="1">
          <mxGeometry x="-0.9967" y="-2" relative="1" as="geometry">
            <mxPoint x="430.5" y="2126" as="sourcePoint" />
            <mxPoint x="130" y="2126" as="targetPoint" />
            <mxPoint as="offset" />
          </mxGeometry>
        </mxCell>
        <mxCell id="efj_H7i_S5H2ew-vdAwM-60" value="&lt;font face=&quot;Helvetica&quot;&gt;36. 닉네임 중복 체크 ([POST] /api/v1/nicknameCheck)&lt;/font&gt;" style="html=1;verticalAlign=bottom;endArrow=block;labelBackgroundColor=none;fontFamily=Verdana;fontSize=12;edgeStyle=elbowEdgeStyle;elbow=vertical;align=left;fontStyle=1" edge="1" parent="1">
          <mxGeometry x="-1" relative="1" as="geometry">
            <mxPoint x="129.5" y="2056" as="sourcePoint" />
            <mxPoint x="430" y="2056" as="targetPoint" />
            <mxPoint as="offset" />
          </mxGeometry>
        </mxCell>
        <mxCell id="efj_H7i_S5H2ew-vdAwM-61" value="&lt;font face=&quot;Helvetica&quot;&gt;38. 조회 결과 전달&lt;br&gt;&lt;/font&gt;" style="html=1;verticalAlign=bottom;endArrow=block;labelBackgroundColor=none;fontFamily=Verdana;fontSize=12;edgeStyle=elbowEdgeStyle;elbow=vertical;align=right;dashed=1;fontStyle=1" edge="1" parent="1">
          <mxGeometry x="-1" relative="1" as="geometry">
            <mxPoint x="760" y="2105" as="sourcePoint" />
            <mxPoint x="429.5" y="2105" as="targetPoint" />
            <mxPoint as="offset" />
          </mxGeometry>
        </mxCell>
        <mxCell id="efj_H7i_S5H2ew-vdAwM-62" value="닉네임 중복 체크 (api/v1/nicknameCheck)" style="shape=umlFrame;whiteSpace=wrap;html=1;pointerEvents=0;width=250;height=20;fillColor=#fff2cc;strokeColor=#d6b656;" vertex="1" parent="1">
          <mxGeometry x="80" y="2011" width="920" height="140" as="geometry" />
        </mxCell>
        <mxCell id="efj_H7i_S5H2ew-vdAwM-63" value="37. 회원 테이블 내 닉네임 존재 유무 체크" style="html=1;verticalAlign=bottom;endArrow=block;labelBackgroundColor=none;fontFamily=Helvetica;fontSize=12;edgeStyle=elbowEdgeStyle;elbow=vertical;align=left;exitX=0.5;exitY=0.193;exitDx=0;exitDy=0;exitPerimeter=0;fontStyle=1" edge="1" parent="1">
          <mxGeometry x="-0.9984" relative="1" as="geometry">
            <mxPoint x="430" y="2071" as="sourcePoint" />
            <mxPoint x="759.5" y="2071" as="targetPoint" />
            <mxPoint as="offset" />
          </mxGeometry>
        </mxCell>
        <mxCell id="efj_H7i_S5H2ew-vdAwM-64" value="&lt;div style=&quot;&quot;&gt;&lt;font face=&quot;Helvetica&quot;&gt;43. 가입이 되어 있으면 200 OK,&lt;/font&gt;&lt;/div&gt;&lt;div style=&quot;&quot;&gt;&lt;font face=&quot;Helvetica&quot;&gt;아니면 400 BAD_REQUEST&lt;/font&gt;&lt;/div&gt;" style="html=1;verticalAlign=bottom;endArrow=block;labelBackgroundColor=none;fontFamily=Verdana;fontSize=12;edgeStyle=elbowEdgeStyle;elbow=vertical;align=right;dashed=1;fontStyle=1" edge="1" parent="1">
          <mxGeometry x="-0.9967" y="-2" relative="1" as="geometry">
            <mxPoint x="430.5" y="2320.33" as="sourcePoint" />
            <mxPoint x="130" y="2320.33" as="targetPoint" />
            <mxPoint as="offset" />
          </mxGeometry>
        </mxCell>
        <mxCell id="efj_H7i_S5H2ew-vdAwM-65" value="&lt;font face=&quot;Helvetica&quot;&gt;40. 카카오 액세스 토큰을 통해&lt;br&gt;계정 등록 여부 체크 ([POST] /api/v1/isRegistered)&lt;/font&gt;" style="html=1;verticalAlign=bottom;endArrow=block;labelBackgroundColor=none;fontFamily=Verdana;fontSize=12;edgeStyle=elbowEdgeStyle;elbow=vertical;align=left;fontStyle=1" edge="1" parent="1">
          <mxGeometry x="-1" relative="1" as="geometry">
            <mxPoint x="129.5" y="2250.33" as="sourcePoint" />
            <mxPoint x="430" y="2250.33" as="targetPoint" />
            <mxPoint as="offset" />
          </mxGeometry>
        </mxCell>
        <mxCell id="efj_H7i_S5H2ew-vdAwM-66" value="&lt;font face=&quot;Helvetica&quot;&gt;42. 조회 결과 전달&lt;br&gt;&lt;/font&gt;" style="html=1;verticalAlign=bottom;endArrow=block;labelBackgroundColor=none;fontFamily=Verdana;fontSize=12;edgeStyle=elbowEdgeStyle;elbow=vertical;align=right;dashed=1;fontStyle=1" edge="1" parent="1">
          <mxGeometry x="-1" relative="1" as="geometry">
            <mxPoint x="760" y="2299.33" as="sourcePoint" />
            <mxPoint x="429.5" y="2299.33" as="targetPoint" />
            <mxPoint as="offset" />
          </mxGeometry>
        </mxCell>
        <mxCell id="efj_H7i_S5H2ew-vdAwM-67" value="소셜 로그인 계정 가입 여부 체크 (api/v1/isRegistered)" style="shape=umlFrame;whiteSpace=wrap;html=1;pointerEvents=0;width=310;height=24;fillColor=#fff2cc;strokeColor=#d6b656;" vertex="1" parent="1">
          <mxGeometry x="80" y="2176" width="920" height="184" as="geometry" />
        </mxCell>
        <mxCell id="efj_H7i_S5H2ew-vdAwM-68" value="41. 카카오 액세스 토큰에서 카카오 로그인 프로필 획득,&lt;br style=&quot;border-color: var(--border-color);&quot;&gt;이메일을 토대로 회원 가입 조회" style="html=1;verticalAlign=bottom;endArrow=block;labelBackgroundColor=none;fontFamily=Helvetica;fontSize=12;edgeStyle=elbowEdgeStyle;elbow=vertical;align=left;exitX=0.5;exitY=0.193;exitDx=0;exitDy=0;exitPerimeter=0;fontStyle=1" edge="1" parent="1">
          <mxGeometry x="-0.9984" relative="1" as="geometry">
            <mxPoint x="430" y="2265.33" as="sourcePoint" />
            <mxPoint x="759.5" y="2265.33" as="targetPoint" />
            <mxPoint as="offset" />
          </mxGeometry>
        </mxCell>
      </root>
    </mxGraphModel>
  </diagram>
</mxfile>
